<svg width="734" height="153" viewBox="0 0 734 153" fill="none" xmlns="http://www.w3.org/2000/svg">
<path d="M707.12 118L712.805 129.561L725.418 131.339L716.358 140.232L718.49 152.86L707.12 146.813L695.928 152.86L698.06 140.232L689 131.339L701.613 129.561L707.12 118Z" fill="#DCBC89"/>
<path d="M14.2492 26.4185L18.5129 34.9555L27.9283 36.3784L21 43.1368L22.7765 52.5632L14.2492 48.1168L5.72202 52.5632L7.32089 43.1368L0.392509 36.3784L9.98565 34.9555L14.2492 26.4185Z" fill="#DCBC89"/>
<path d="M34.5014 0.807251L37.1662 5.96504L42.851 6.85432L38.765 10.945L39.6533 16.6363L34.5014 13.9685L29.3495 16.6363L30.4154 10.945L26.1518 6.85432L32.0143 5.96504L34.5014 0.807251Z" fill="#DCBC89"/>
<path d="M725.384 62.8787L727.871 68.0365L733.733 68.9258L729.47 73.0164L730.536 78.7078L725.384 76.04L720.232 78.7078L721.12 73.0164L717.034 68.9258L722.719 68.0365L725.384 62.8787Z" fill="#DCBC89"/>
</svg>
