<svg width="1242" height="799" viewBox="0 0 1242 799" fill="none" xmlns="http://www.w3.org/2000/svg">
<path d="M1 743.012V55.7794C31.2006 55.7794 55.7163 31.2354 55.7163 1H1186.28C1186.28 31.2354 1210.8 55.7794 1241 55.7794V743.012C1210.8 743.012 1186.28 767.556 1186.28 797.791H55.7163C55.7163 767.556 31.2006 743.012 1 743.012Z" stroke="#C5AA80" stroke-width="2" stroke-miterlimit="10"/>
<path d="M85.0287 93.6626C85.384 95.2633 84.4957 96.3304 83.2522 95.7968C73.8367 92.9512 63.8882 85.6591 56.0716 76.2328C48.255 66.8065 40.4384 53.1116 38.8395 42.6182C38.6619 41.0175 39.5501 40.306 40.9713 40.8396C50.2092 44.7524 62.1117 54.1787 69.5731 63.2493C77.212 72.32 82.3639 83.1691 85.0287 93.6626Z" stroke="#C5AA80" stroke-width="2" stroke-miterlimit="10"/>
<path d="M49.8539 108.069C49.6762 109.67 48.788 110.025 48.0774 108.958C43.1032 101.666 38.8395 90.4612 36.7077 78.3671C34.5759 66.2729 34.3983 53.6452 36.1748 43.8632C36.5301 42.4404 37.2407 42.2625 37.9513 43.5075C42.5702 51.511 46.4785 62.7158 48.788 74.2764C50.9198 85.837 51.0974 97.9312 49.8539 108.069Z" stroke="#C5AA80" stroke-width="2" stroke-miterlimit="10"/>
<path d="M32.6218 46.8867C32.7994 46.8867 32.9771 46.8867 32.9771 47.0646C35.4642 51.8667 34.7536 57.558 34.2206 63.0715C34.043 65.7394 33.8653 68.4072 33.51 71.075C33.1547 73.9207 32.2665 76.7664 31.3782 79.4342C30.1347 82.9913 28.8911 86.5484 26.7593 89.572C24.6275 92.5955 21.7851 95.2633 18.2321 96.6862C15.0344 97.9312 11.1261 97.7533 8.28366 96.1526C8.10601 95.9747 8.10601 95.619 8.28366 95.4412C11.4814 94.5519 13.2579 90.9948 13.9685 87.6155C14.6791 84.0584 14.1461 80.3235 14.1461 76.5885C14.1461 70.1857 15.5673 63.783 18.765 58.2695C22.1404 52.7559 26.5816 48.6653 32.6218 46.8867Z" stroke="#C5AA80" stroke-width="2" stroke-miterlimit="10"/>
<path d="M105.103 58.803C106.702 58.803 107.235 58.0916 106.169 57.2023C99.596 51.3331 88.937 45.8196 77.212 42.2625C65.4871 38.7054 52.8739 36.9268 43.1032 37.8161C41.6819 37.994 41.3266 38.7054 42.5702 39.5946C50.0315 45.1082 60.6905 50.4438 71.8825 53.8231C83.0745 57.3802 94.9771 58.803 105.103 58.803Z" stroke="#C5AA80" stroke-width="2" stroke-miterlimit="10"/>
<path d="M46.4785 34.4368C46.4785 34.6147 46.4785 34.7925 46.6562 34.7925C51.0974 37.8161 56.9599 37.8161 62.2894 37.9939C64.9542 38.1718 67.6189 38.3496 70.2837 38.1718C73.1261 37.9939 75.9685 37.6382 78.8109 37.1046C82.5416 36.3932 86.0946 35.3261 89.4699 33.7254C92.8453 31.9468 95.6877 29.4569 97.4642 26.0776C99.063 23.0541 99.4183 19.1413 97.9971 16.1177C97.8195 15.762 97.4642 15.762 97.2865 16.1177C96.043 19.1413 92.3123 20.5641 88.937 20.9198C85.2063 21.2755 81.6533 20.3863 78.1003 19.8527C71.8825 18.9634 65.1318 19.6748 59.447 22.3427C53.5845 24.6548 48.9656 28.7454 46.4785 34.4368Z" stroke="#C5AA80" stroke-width="2" stroke-miterlimit="10"/>
<path d="M1157.15 93.6626C1156.79 95.2633 1157.68 96.3304 1158.93 95.7968C1168.34 92.9512 1178.29 85.6591 1186.11 76.2328C1193.92 66.8065 1201.74 53.1116 1203.34 42.6182C1203.52 41.0175 1202.63 40.306 1201.21 40.8396C1191.97 44.7524 1180.07 54.1787 1172.6 63.2493C1164.97 72.32 1159.81 83.1691 1157.15 93.6626Z" stroke="#C5AA80" stroke-width="2" stroke-miterlimit="10"/>
<path d="M1192.5 108.069C1192.68 109.67 1193.57 110.025 1194.28 108.958C1199.25 101.666 1203.52 90.4612 1205.65 78.3671C1207.78 66.2729 1207.96 53.6452 1206.18 43.8632C1205.83 42.4404 1205.11 42.2625 1204.4 43.5075C1199.78 51.511 1195.88 62.7158 1193.57 74.2764C1191.26 85.837 1191.26 97.9312 1192.5 108.069Z" stroke="#C5AA80" stroke-width="2" stroke-miterlimit="10"/>
<path d="M1209.73 46.8867C1209.56 46.8867 1209.38 46.8867 1209.38 47.0646C1206.89 51.8667 1207.6 57.558 1208.13 63.0715C1208.31 65.7394 1208.49 68.4072 1208.85 71.075C1209.2 73.9207 1210.09 76.7664 1210.98 79.4342C1212.22 82.9913 1213.46 86.5484 1215.6 89.572C1217.73 92.5955 1220.57 95.2633 1224.12 96.6862C1227.32 97.9312 1231.23 97.7533 1234.07 96.1526C1234.25 95.9747 1234.25 95.619 1234.07 95.4412C1230.87 94.5519 1229.1 90.9948 1228.39 87.6155C1227.68 84.0584 1228.21 80.3235 1228.21 76.5885C1228.21 70.1857 1226.79 63.783 1223.59 58.2695C1220.21 52.7559 1215.6 48.6653 1209.73 46.8867Z" stroke="#C5AA80" stroke-width="2" stroke-miterlimit="10"/>
<path d="M1137.07 58.803C1135.48 58.803 1134.94 58.0916 1136.01 57.2023C1142.58 51.3331 1153.24 45.8196 1164.97 42.2625C1176.69 38.7054 1189.3 36.9268 1199.07 37.8161C1200.5 37.994 1200.85 38.7054 1199.61 39.5946C1192.15 45.1082 1181.49 50.4438 1170.3 53.8231C1159.1 57.3802 1147.38 58.803 1137.07 58.803Z" stroke="#C5AA80" stroke-width="2" stroke-miterlimit="10"/>
<path d="M1195.7 34.4368C1195.7 34.6147 1195.7 34.7925 1195.52 34.7925C1191.08 37.8161 1185.22 37.8161 1179.89 37.9939C1177.22 38.1718 1174.56 38.3496 1171.89 38.1718C1169.05 37.9939 1166.21 37.6382 1163.37 37.1046C1159.64 36.3932 1156.08 35.3261 1152.71 33.7254C1149.33 31.9468 1146.49 29.4569 1144.71 26.0776C1143.11 23.0541 1142.76 19.1413 1144.18 16.1177C1144.36 15.762 1144.71 15.762 1144.89 16.1177C1146.13 19.1413 1149.87 20.5641 1153.24 20.9198C1156.97 21.2755 1160.52 20.3863 1164.08 19.8527C1170.47 18.9634 1177.05 19.6748 1182.73 22.3427C1188.59 24.6548 1193.21 28.7454 1195.7 34.4368Z" stroke="#C5AA80" stroke-width="2" stroke-miterlimit="10"/>
<path d="M1157.15 704.773C1156.79 703.172 1157.68 702.105 1158.93 702.639C1168.34 705.484 1178.29 712.776 1186.11 722.203C1193.92 731.629 1201.74 745.324 1203.34 755.817C1203.52 757.418 1202.63 758.129 1201.21 757.596C1191.97 753.683 1180.07 744.257 1172.6 735.186C1164.97 725.938 1159.81 715.088 1157.15 704.773Z" stroke="#C5AA80" stroke-width="2" stroke-miterlimit="10"/>
<path d="M1192.5 690.367C1192.68 688.766 1193.57 688.41 1194.28 689.477C1199.25 696.769 1203.52 707.974 1205.65 720.068C1207.78 732.163 1207.96 744.79 1206.18 754.572C1205.83 755.995 1205.11 756.173 1204.4 754.928C1199.78 746.925 1195.88 735.72 1193.57 724.159C1191.26 712.421 1191.26 700.504 1192.5 690.367Z" stroke="#C5AA80" stroke-width="2" stroke-miterlimit="10"/>
<path d="M1209.73 751.371C1209.56 751.371 1209.38 751.371 1209.38 751.193C1206.89 746.391 1207.6 740.7 1208.13 735.186C1208.31 732.518 1208.49 729.85 1208.85 727.183C1209.2 724.337 1210.09 721.491 1210.98 718.823C1212.22 715.266 1213.46 711.709 1215.6 708.686C1217.73 705.662 1220.57 702.994 1224.12 701.571C1227.32 700.326 1231.23 700.504 1234.07 702.105C1234.25 702.283 1234.25 702.639 1234.07 702.816C1230.87 703.706 1229.1 707.263 1228.39 710.642C1227.68 714.199 1228.21 717.934 1228.21 721.669C1228.21 728.072 1226.79 734.475 1223.59 739.988C1220.21 745.502 1215.6 749.592 1209.73 751.371Z" stroke="#C5AA80" stroke-width="2" stroke-miterlimit="10"/>
<path d="M1137.07 739.632C1135.48 739.632 1134.94 740.344 1136.01 741.233C1142.58 747.102 1153.24 752.616 1164.97 756.173C1176.69 759.73 1189.3 761.509 1199.07 760.619C1200.5 760.442 1200.85 759.73 1199.61 758.841C1192.15 753.327 1181.49 747.992 1170.3 744.612C1159.1 741.055 1147.38 739.455 1137.07 739.632Z" stroke="#C5AA80" stroke-width="2" stroke-miterlimit="10"/>
<path d="M1195.7 763.821C1195.7 763.643 1195.7 763.465 1195.52 763.465C1191.08 760.442 1185.22 760.442 1179.89 760.264C1177.22 760.086 1174.56 759.908 1171.89 760.086C1169.05 760.264 1166.21 760.619 1163.37 761.153C1159.64 761.864 1156.08 762.932 1152.71 764.532C1149.33 766.311 1146.49 768.801 1144.71 772.18C1143.11 775.204 1142.76 779.116 1144.18 782.14C1144.36 782.496 1144.71 782.496 1144.89 782.14C1146.13 779.116 1149.87 777.694 1153.24 777.338C1156.97 776.982 1160.52 777.871 1164.08 778.405C1170.47 779.294 1177.05 778.583 1182.73 775.915C1188.59 773.603 1193.21 769.69 1195.7 763.821Z" stroke="#C5AA80" stroke-width="2" stroke-miterlimit="10"/>
<path d="M85.0287 704.773C85.384 703.172 84.4957 702.105 83.2522 702.639C73.8367 705.484 63.8882 712.776 56.0716 722.203C48.255 731.629 40.4384 745.324 38.8395 755.817C38.6619 757.418 39.5501 758.129 40.9713 757.596C50.2092 753.683 62.1117 744.257 69.5731 735.186C77.212 725.938 82.3639 715.088 85.0287 704.773Z" stroke="#C5AA80" stroke-width="2" stroke-miterlimit="10"/>
<path d="M49.8539 690.367C49.6762 688.766 48.788 688.41 48.0774 689.477C43.1032 696.769 38.8395 707.974 36.7077 720.068C34.5759 732.163 34.3983 744.79 36.1748 754.572C36.5301 755.995 37.2407 756.173 37.9513 754.928C42.5702 746.925 46.4785 735.72 48.788 724.159C50.9198 712.421 51.0974 700.504 49.8539 690.367Z" stroke="#C5AA80" stroke-width="2" stroke-miterlimit="10"/>
<path d="M32.6218 751.371C32.7994 751.371 32.9771 751.371 32.9771 751.193C35.4642 746.391 34.7536 740.7 34.2206 735.186C34.043 732.518 33.8653 729.85 33.51 727.183C33.1547 724.337 32.2665 721.491 31.3782 718.823C30.1347 715.266 28.8911 711.709 26.7593 708.686C24.6275 705.662 21.7851 702.994 18.2321 701.571C15.0344 700.326 11.1261 700.504 8.28366 702.105C8.10601 702.283 8.10601 702.639 8.28366 702.816C11.4814 703.706 13.2579 707.263 13.9685 710.642C14.6791 714.199 14.1461 717.934 14.1461 721.669C14.1461 728.072 15.5673 734.475 18.765 739.988C22.1404 745.502 26.5816 749.592 32.6218 751.371Z" stroke="#C5AA80" stroke-width="2" stroke-miterlimit="10"/>
<path d="M105.103 739.632C106.702 739.632 107.235 740.344 106.169 741.233C99.596 747.102 88.937 752.616 77.212 756.173C65.4871 759.73 52.8739 761.509 43.1032 760.619C41.6819 760.442 41.3266 759.73 42.5702 758.841C50.0315 753.327 60.6905 747.992 71.8825 744.612C83.0745 741.055 94.9771 739.455 105.103 739.632Z" stroke="#C5AA80" stroke-width="2" stroke-miterlimit="10"/>
<path d="M46.4785 763.821C46.4785 763.643 46.4785 763.465 46.6562 763.465C51.0974 760.442 56.9599 760.442 62.2894 760.264C64.9542 760.086 67.6189 759.908 70.2837 760.086C73.1261 760.264 75.9685 760.619 78.8109 761.153C82.5416 761.864 86.0946 762.932 89.4699 764.532C92.8453 766.311 95.6877 768.801 97.4642 772.18C99.063 775.204 99.4183 779.116 97.9971 782.14C97.8195 782.496 97.4642 782.496 97.2865 782.14C96.043 779.116 92.3123 777.694 88.937 777.338C85.2063 776.982 81.6533 777.871 78.1003 778.405C71.8825 779.294 65.1318 778.583 59.447 775.915C53.5845 773.603 48.9656 769.69 46.4785 763.821Z" stroke="#C5AA80" stroke-width="2" stroke-miterlimit="10"/>
</svg>
