<svg width="435" height="60" viewBox="0 0 435 60" fill="none" xmlns="http://www.w3.org/2000/svg">
<path d="M2.38392 35.988C1.67332 34.5652 1.14038 33.4981 0.785081 32.6088C0.429781 31.7195 0.252125 31.0081 0.252125 30.2966C0.252125 28.5181 0.252109 27.0953 0.429759 25.6724C0.607409 24.2496 1.14037 23.0046 1.85097 21.7596L4.33809 17.8468C4.51574 17.4911 5.04869 17.1354 5.58164 16.6018C6.29224 16.0683 6.82517 15.7125 7.53578 15.1789C8.24638 14.8232 8.957 14.4676 9.6676 14.1119C10.3782 13.7561 10.9112 13.5783 11.4441 13.5783C11.7994 13.7561 12.1547 13.7561 12.3324 13.7561C12.51 13.7561 12.6876 13.7561 12.8653 13.7561C13.0429 13.7561 13.2206 13.7561 13.3982 13.5783C13.5759 13.5783 13.5759 13.4004 13.7535 13.4004H15.53C16.4183 13.4004 17.1289 13.5783 17.8395 13.7561C18.5501 13.934 19.2607 14.2897 19.9713 15.0011L22.2808 17.1354L23.5243 17.8468C24.0573 18.2025 24.4126 18.5582 24.4126 18.9139C24.5902 19.2696 24.7679 19.8032 24.7679 20.1589C24.9455 20.5146 24.9455 21.0482 25.1232 21.4039C25.1232 21.7596 25.4785 22.2932 25.6561 22.6489C25.8338 23.0046 26.1891 23.1824 26.3667 23.3603C26.5444 23.5381 26.722 23.716 26.8997 23.716C27.0773 23.8939 27.255 24.0717 27.255 24.2496C27.4326 24.4274 27.4327 24.7831 27.6103 25.3167C27.6103 25.6724 27.6103 26.3839 27.7879 27.2731C27.7879 28.1624 27.7879 28.8738 27.7879 29.5852C27.7879 29.7631 27.788 30.1188 27.6103 30.4745C27.4327 30.8302 27.4326 31.1859 27.255 31.7195C27.0773 32.2531 26.8997 32.4309 26.8997 32.7866C26.722 33.1424 26.7221 33.3202 26.7221 33.3202C26.7221 33.498 26.5444 33.8538 26.3667 34.3873C26.1891 34.9209 26.0114 35.2766 25.6561 35.8102C25.4785 36.3437 25.1232 36.6995 24.9455 37.233C24.7679 37.5887 24.5902 37.9444 24.4126 38.1223C23.8796 38.3002 23.3467 38.6559 23.169 38.8337C22.8137 39.1894 22.6361 39.3673 22.2808 39.723C22.1031 40.0787 21.9254 40.2565 21.5701 40.4344C21.3925 40.6123 21.0372 40.7901 20.6819 40.9679C19.9713 41.3237 19.2607 41.5015 18.5501 41.6794C17.8395 41.8573 17.1289 42.0351 16.4183 42.2129H14.6418C13.0429 42.2129 11.6218 42.0351 10.5559 41.6794C9.48995 41.3237 8.60169 40.968 7.71344 40.4344C6.82518 39.9008 6.11459 39.1894 5.22634 38.3001C4.33809 37.9444 3.44983 37.0551 2.38392 35.988ZM3.27218 27.8067C3.27218 28.3402 3.44982 29.0517 3.62747 29.7631C3.80512 30.6524 4.16043 31.3638 4.69339 32.253C5.04869 33.1423 5.58163 34.0316 5.93693 34.743C6.46988 35.4544 6.82519 35.988 7.35814 36.3438C7.89109 36.6995 8.60168 37.0551 9.31228 37.4108C10.0229 37.7665 10.9111 37.9444 11.7994 38.3001C12.6877 38.6558 13.5759 38.6559 14.2865 38.8337C15.1747 39.0116 15.8853 39.0116 16.4183 39.0116C16.7736 39.0116 16.9512 38.8337 17.1289 38.6558C17.3065 38.478 17.4842 38.3002 17.8395 38.1223C18.1948 37.9444 18.3725 37.7666 18.7278 37.7666C18.9054 37.7666 19.0831 37.5887 19.2607 37.5887C19.4384 37.4108 19.616 37.4109 19.7936 37.233C19.9713 37.0552 20.149 36.8773 20.3266 36.5216C20.5043 36.1659 20.6819 35.8101 21.0372 35.6323C21.3925 35.4544 21.5702 35.2766 21.9255 34.9209C22.1031 34.743 22.4584 34.3873 22.6361 34.2095C22.8137 34.0316 22.9914 33.6759 23.169 33.1423C23.169 32.9645 23.169 32.7866 23.3467 32.253C23.3467 31.8973 23.3467 31.7195 23.5243 31.5416C23.702 31.0081 23.8796 30.4745 24.0573 30.1188C24.2349 29.7631 24.4126 29.2295 24.4126 28.5181C24.4126 27.8067 24.4126 27.0953 24.2349 26.3839C24.0573 25.8503 23.702 25.3167 22.9914 24.7832C22.9914 24.4275 22.8137 24.2496 22.8137 24.0717C22.8137 23.8938 22.8137 23.8939 22.8137 23.716C22.8137 23.0046 22.6361 22.471 22.2808 21.9375C21.9255 21.5818 21.3925 21.0482 21.0372 20.3368C20.5043 19.6254 19.9713 19.0918 19.616 18.736C19.2607 18.3803 18.7278 18.2025 18.3725 18.0246C18.0172 17.8468 17.4842 17.669 16.9513 17.669C16.4183 17.4911 15.8854 17.3132 15.3524 16.7797H11.977C11.6217 16.9575 11.2664 17.1354 11.0888 17.1354C10.9111 17.3132 10.5558 17.3132 10.3782 17.4911C10.2005 17.6689 9.84525 17.8468 9.6676 17.8468C8.957 18.2025 8.24638 18.7361 7.53578 19.4475C6.82517 20.1589 6.29224 21.0482 5.58164 21.9375C5.04869 22.8267 4.51573 23.716 4.16043 24.6053C3.80513 25.4946 3.27218 27.0952 3.27218 27.8067Z" fill="#DCBC89"/>
<path d="M50.5272 40.9681C50.5272 40.2566 50.8825 39.7231 51.4155 39.5452C51.9484 39.3674 52.659 39.0117 53.3696 39.0117C54.0802 39.0117 54.7908 38.8338 55.5014 38.656C56.212 38.4781 56.745 38.3003 56.9226 37.9446C57.1003 37.5888 57.2779 37.0552 57.4556 36.5217C57.6332 35.8103 57.8109 35.2767 57.8109 35.0989L56.9226 30.4746C56.9226 30.2968 56.9226 30.1189 57.1002 29.7632C57.1002 29.4075 57.2779 29.0518 57.2779 28.6961C57.2779 28.3404 57.4556 27.9846 57.4556 27.6289C57.4556 27.2732 57.6332 27.0954 57.6332 27.0954L56.9226 20.6926C56.9226 20.5147 56.9226 20.159 57.1002 19.9812C57.1002 19.8033 57.2779 19.6255 57.4556 19.2698C56.9226 18.7362 56.3897 18.2026 55.8567 17.8469C55.3238 17.4912 54.7908 17.1355 54.2579 16.9576C53.9026 16.7798 53.5472 16.7798 53.0143 16.6019C52.4813 16.6019 52.126 16.4241 51.7707 16.2462C51.4154 16.0683 51.0602 15.8905 50.7049 15.7127C50.3496 15.5348 50.3495 15.1791 50.3495 14.6455C50.3495 14.1119 50.7048 13.7562 51.2378 13.5784C51.7707 13.4005 52.3037 13.4005 52.659 13.4005L56.3896 13.5784C56.7449 13.5784 56.9226 13.5784 57.1002 13.5784C57.2779 13.5784 57.4556 13.4005 57.8109 13.4005C58.3438 13.4005 58.8768 13.5784 59.2321 13.5784C59.5874 13.5784 60.1203 13.5784 60.6532 13.5784C61.0085 13.5784 61.5415 13.5784 61.8968 13.5784C62.2521 13.5784 62.7851 13.4005 63.1404 13.4005C63.318 13.2227 63.4957 13.0448 64.0286 13.0448C64.3839 12.867 64.9169 12.867 65.2722 12.6891C65.8051 12.6891 66.1604 12.5112 66.6934 12.5112C67.0487 12.5112 67.5816 12.5112 67.7593 12.5112C67.9369 12.5112 68.1146 12.5112 68.4699 12.5112C68.8252 12.5112 69.0029 12.5112 69.3582 12.6891C69.7135 12.6891 69.8911 12.867 70.0687 13.0448C70.2464 13.2227 70.424 13.4005 70.424 13.7562C70.424 14.2898 70.2464 14.8233 69.8911 15.1791C69.5358 15.5348 69.0029 15.7126 68.4699 16.0683C67.937 16.2462 67.404 16.4241 66.871 16.6019C66.3381 16.7798 65.8051 16.7798 65.4498 16.9576C65.0945 17.1355 64.9169 17.4912 64.5616 18.0248C64.3839 18.5583 64.0286 19.0919 63.851 19.4476L63.318 26.0282L63.851 31.0082L63.318 31.8975C63.318 31.8975 63.318 32.0753 63.4957 32.2532C63.4957 32.431 63.6733 32.6089 63.6733 32.6089C63.6733 32.9646 63.6733 33.1425 63.4957 33.4982C63.318 33.8539 63.318 34.0317 63.318 34.3875C63.318 34.921 63.4957 35.4546 63.6733 35.8103C63.851 36.166 64.0286 36.6996 64.2062 37.2331C64.3839 37.2331 64.7392 37.411 65.2722 37.411C65.8051 37.411 66.1604 37.5888 66.5157 37.5888C66.6934 37.5888 67.0487 37.7667 67.404 38.1224C67.7593 38.3003 68.2922 38.656 68.8252 39.0117C69.3581 39.3674 69.7134 39.5453 70.0687 39.901C70.424 40.2567 70.6017 40.6124 70.6017 40.7902C70.6017 40.9681 70.4241 41.3238 70.2464 41.5017C70.0688 41.6795 69.8911 42.0352 69.5358 42.2131L64.5616 42.3909C64.5616 42.3909 64.3839 42.3909 64.2062 42.2131C64.0286 42.0352 64.0286 42.2131 63.851 42.2131C63.6733 42.2131 63.318 42.2131 62.9627 42.2131H61.3639C60.298 42.2131 59.0544 42.2131 57.9885 42.2131C56.7449 42.2131 55.679 42.3909 54.6131 42.5688L53.9025 42.9245C53.1919 42.9245 52.4813 42.7466 51.9484 42.3909C51.2378 41.8574 50.8825 41.5016 50.5272 40.9681Z" fill="#DCBC89"/>
<path d="M90.8538 41.8573C90.8538 41.6795 91.0315 41.5016 91.2091 41.1459C91.3868 40.7902 91.5645 40.4345 91.5645 40.2566C91.5645 40.0788 91.7421 39.901 92.0974 39.7231C92.4527 39.5452 92.6303 39.3674 92.9856 39.1895C93.3409 39.0116 93.5186 38.8338 93.8739 38.656C94.2292 38.4781 94.4068 38.3002 94.5845 38.3002C95.4727 37.7667 96.1833 37.2331 97.0716 36.6995C97.9598 36.166 98.8481 35.6324 99.5587 34.921C100.269 34.2096 100.98 33.4982 101.868 32.6089C102.579 31.7196 103.289 30.6525 104 29.7632C104.711 28.6961 105.244 27.629 105.599 26.5618C105.954 25.4947 106.309 24.4275 106.309 23.3604C106.309 22.4711 105.954 21.5818 105.066 20.6926C104.178 19.8033 103.289 19.4476 102.223 19.4476L100.98 19.9812H99.7363C99.5587 19.9812 99.381 19.9812 99.0257 19.9812C98.8481 19.9812 98.4928 20.159 98.3152 20.3369C97.9599 20.5147 97.6046 20.8704 97.4269 21.404C97.0716 21.7597 96.8939 22.2933 96.5386 22.649C96.1833 23.0047 96.0057 23.3604 95.6504 23.7161C95.2951 24.0718 94.9398 24.2497 94.4068 24.2497C94.2292 24.2497 93.8739 24.2497 93.6962 24.2497C93.5186 24.2497 93.1633 24.0719 92.9856 23.894V22.8269C92.9856 22.1154 92.9857 21.7597 93.1633 21.404C93.341 21.0483 93.3409 20.8704 93.5186 20.6926C93.6962 20.5147 93.8739 20.3369 94.2292 20.159C94.4069 19.9812 94.7622 19.6255 95.1175 19.2698L95.6504 18.7362C96.1833 18.0247 96.7163 17.3134 97.4269 16.7798C97.9599 16.0684 98.8481 15.7126 99.7363 15.3569L102.401 15.0012L104.178 14.6455C104.711 14.6455 105.421 14.6455 106.132 14.8234C106.842 15.0012 107.731 15.0012 108.441 15.3569C109.152 15.5348 109.862 15.8905 110.573 16.2462C111.284 16.6019 111.817 16.9576 112.35 17.4912C112.527 17.6691 112.705 17.8469 112.705 18.2026C112.882 18.3805 112.882 18.5583 113.06 18.7362L114.126 20.5147V24.6054C114.126 24.9611 113.948 25.4947 113.593 25.8504C113.238 26.2061 113.06 26.5618 112.705 26.9175C112.705 26.9175 112.527 27.0954 112.527 27.4511C112.527 27.8068 112.172 28.3403 111.817 29.4075C111.817 29.4075 111.817 29.4075 111.817 29.5853H111.639C111.106 29.941 110.928 30.2968 110.751 30.6525C110.751 31.0082 110.395 31.3639 110.04 31.7196C109.507 32.0753 109.152 32.431 108.619 32.431C108.086 32.431 107.731 32.6089 107.198 32.9646C107.198 32.9646 107.02 32.9646 106.842 33.1424C106.665 33.3203 106.487 33.3203 106.309 33.4982C106.132 33.676 105.954 33.8539 105.776 34.0317C105.599 34.2096 105.599 34.2096 105.421 34.3874C105.421 34.3874 105.243 34.3875 105.066 34.5653C104.888 34.7432 104.711 34.7431 104.533 34.921C104.355 35.0988 104.178 35.2767 104 35.2767C103.822 35.4546 103.645 35.4546 103.645 35.4546C103.467 35.4546 103.289 35.6324 103.112 35.9881C102.934 36.166 102.756 36.5217 102.579 36.6995C102.401 36.8774 102.223 37.2331 102.046 37.4109C101.868 37.5888 101.868 37.7667 101.868 37.9445C101.868 38.1224 101.868 38.1224 102.046 38.1224H103.112C103.645 38.1224 104.355 38.1224 104.711 38.3002C105.244 38.3002 105.776 38.4781 106.132 38.656H107.908C109.152 38.656 110.395 38.4781 111.639 38.3002C112.882 38.1224 114.126 37.7667 115.192 37.2331C115.37 37.0553 115.547 37.0553 115.547 36.8774C115.547 36.6995 115.725 36.5217 115.725 36.3439C116.08 35.9881 116.435 35.6324 116.968 35.2767C117.501 34.921 117.857 34.7432 118.39 34.3874L118.923 36.166C118.923 36.5217 118.745 37.0552 118.567 37.4109C118.39 37.7667 118.212 38.3002 117.857 38.656C117.857 38.8338 117.679 39.1895 117.679 39.5452C117.679 39.9009 117.501 40.4345 117.324 40.7902C117.146 41.1459 116.968 41.6795 116.791 42.0352C116.613 42.3909 116.258 42.5688 115.903 42.5688H115.37C114.481 42.7466 113.593 42.7466 112.705 42.9245C111.817 43.1023 110.928 43.1023 110.04 43.1023C109.507 43.1023 108.974 42.9245 108.441 42.5688C107.908 42.2131 107.375 42.0352 106.842 42.0352C106.309 42.0352 105.776 42.0352 105.244 42.2131C104.711 42.2131 104.178 42.3909 103.822 42.3909C103.822 42.3909 103.645 42.3909 103.467 42.5688C103.289 42.7466 103.112 42.7466 102.934 42.9245L99.7363 42.0352C99.381 42.0352 99.2034 42.0352 98.8481 42.2131C98.4928 42.3909 98.3151 42.3909 97.9598 42.5688C97.0716 42.5688 96.1833 42.7466 95.4727 42.7466C94.7621 42.7466 93.8739 42.9245 92.808 42.9245C92.4527 42.9245 91.9198 42.9245 91.5645 42.7466C91.0315 42.7466 90.8538 42.3909 90.8538 41.8573Z" fill="#DCBC89"/>
<path d="M135.977 54.1292C135.977 53.7735 135.977 53.4178 135.977 53.0621C135.977 52.7064 136.155 52.5286 136.332 52.3507C136.51 52.1728 136.688 51.995 137.043 51.995C137.398 51.995 137.754 51.8171 138.109 51.6392C138.286 51.6392 138.642 51.4614 138.997 51.2836C139.352 51.1057 139.708 51.1057 139.885 51.1057C140.241 51.1057 140.596 51.2836 140.951 51.4614C141.307 51.6393 141.662 51.8171 141.839 51.995C142.195 52.1728 142.55 52.3507 142.905 52.5285C143.261 52.7064 143.616 52.8842 143.971 52.8842C145.037 52.8842 146.103 52.5285 146.991 51.8171C147.88 51.1057 148.59 50.2164 149.123 49.3271C149.123 49.3271 149.123 49.1493 149.301 48.7936C149.301 48.4379 149.301 48.26 149.301 48.26C149.478 48.0821 149.656 47.9043 150.011 47.9043C150.367 47.9043 150.367 47.5486 150.367 47.1929V43.6358C150.367 43.4579 150.367 43.2801 150.189 43.1022C150.011 42.9244 150.011 42.7465 149.834 42.5687C149.656 42.3908 149.478 42.2129 149.478 42.0351C149.478 41.8572 149.301 41.8572 149.301 41.6794C148.59 40.6123 147.702 39.9008 146.814 39.1894C145.925 38.478 145.037 37.9444 143.971 37.233C143.971 37.233 143.794 37.0551 143.616 36.6994C143.438 36.3437 143.261 36.3437 143.083 36.3437C142.55 36.3437 142.017 36.5216 141.484 36.8773C140.951 37.233 140.418 37.4108 139.885 37.4108C139.53 37.4108 139.352 37.233 138.997 36.8773C138.819 36.5216 138.642 36.1659 138.642 35.988C138.642 35.4544 138.819 35.0987 139.175 34.743C139.53 34.3873 140.063 34.0316 140.596 33.8537C141.129 33.6759 141.662 33.498 142.195 33.3202C142.728 33.1423 143.083 32.9644 143.438 32.9644C143.438 32.9644 143.616 32.7866 143.971 32.4309C144.327 32.0752 144.504 31.8974 144.504 31.8974C145.037 31.5416 145.57 31.1859 146.103 30.8302C146.636 30.6524 146.991 30.1188 147.347 29.5852L147.702 29.0517C148.413 27.9845 148.945 26.9174 149.478 25.8502C150.011 24.7831 150.189 23.716 150.189 22.471C150.189 22.2931 150.011 22.1153 149.478 21.5817C148.945 21.0482 148.59 20.6925 148.413 20.1589C148.235 19.8032 147.88 19.6253 147.524 19.4475C147.169 19.2696 146.636 19.2696 146.281 19.2696C145.392 19.6253 144.682 19.8032 144.149 19.981C143.616 20.1589 142.905 20.1589 142.195 20.1589H140.596C140.241 20.1589 140.063 19.981 139.885 19.6253C139.708 19.2696 139.708 18.9139 139.708 18.736C139.708 18.2025 139.708 17.8468 139.885 17.8468L140.774 17.3132C141.307 16.9575 141.662 16.7796 141.839 16.4239C142.017 16.0682 142.55 15.7125 142.905 15.3568C143.794 14.8232 144.682 14.2897 145.748 14.1118C146.814 13.7561 147.88 13.7561 148.946 13.7561C149.478 13.7561 149.834 13.934 150.189 14.1118C150.544 14.2897 151.077 14.4675 151.433 14.8232C152.321 15.179 152.854 15.5347 153.387 15.7125C153.92 16.0682 154.275 16.424 154.63 16.7797C154.986 17.1354 155.163 17.6689 155.341 18.2025C155.519 18.736 155.696 19.4475 155.874 20.1589C155.874 20.3368 156.052 20.6925 156.052 20.8703C156.229 21.0482 156.229 21.4039 156.229 21.5817C156.229 22.1153 156.052 22.6489 155.874 23.3603C155.696 24.0717 155.519 24.6053 155.163 25.3167C154.986 26.0281 154.63 26.5617 154.275 27.0952C153.92 27.6288 153.564 28.1624 153.209 28.5181C152.854 28.8738 152.499 29.2295 151.966 29.4073C151.433 29.5852 151.077 29.7631 150.722 30.1188C150.367 30.4745 150.189 30.8302 150.011 31.1859C149.834 31.5416 149.656 31.8973 149.478 32.253C148.945 32.4309 148.768 32.7866 148.768 33.1423V33.3202C148.768 33.3202 148.768 33.3202 148.768 33.498C148.945 33.8538 149.123 34.2095 149.656 34.5652C150.189 34.9209 150.544 35.2766 151.077 35.6323C151.61 35.988 152.143 36.3437 152.499 36.6994C152.854 37.0551 153.209 37.4108 153.564 37.5887C153.564 38.3001 153.742 38.8337 153.92 39.3672C154.097 39.7229 154.275 40.2565 154.63 40.6122C154.808 40.968 154.986 41.5015 155.163 42.0351C155.341 42.5686 155.519 43.1022 155.519 43.9915C155.519 44.1693 155.519 44.5251 155.519 45.0586C155.519 45.5922 155.341 46.1257 155.341 46.6593C155.341 47.1929 155.163 47.7264 154.986 48.26C154.808 48.7936 154.808 49.1493 154.63 49.1493L153.742 50.2164C153.387 50.5721 153.209 50.9279 153.031 51.4614C152.854 51.995 152.676 52.3507 152.321 52.7064C151.788 53.4178 150.9 54.1292 149.834 54.8407C148.768 55.5521 147.524 56.2635 146.281 56.9749C145.037 57.6863 143.794 58.2199 142.55 58.5756C141.307 58.9313 140.241 59.287 139.352 59.287C138.997 59.287 138.642 59.1092 138.286 58.7534C138.109 58.3977 137.754 58.2199 137.398 57.8642C136.688 57.5085 136.332 57.1528 135.977 56.6192C136.155 55.7299 135.977 55.0185 135.977 54.1292Z" fill="#DCBC89"/>
<path d="M190.693 53.0621L191.404 51.1057L191.226 48.9714C191.226 48.4378 191.226 48.0821 191.404 47.7264C191.582 47.3707 191.582 46.8371 191.759 46.4814C191.937 45.9479 191.937 45.5922 192.115 45.0586C192.115 44.525 192.292 44.1693 192.292 43.6357C192.292 43.4579 192.115 43.28 191.937 42.9243C191.759 42.7465 191.582 42.5686 191.404 42.3908L187.14 42.2129C186.785 42.2129 186.43 42.2129 186.074 42.2129C185.719 42.2129 185.186 42.3908 184.653 42.3908C183.587 42.5686 182.699 42.7465 181.811 42.7465L180.567 42.3908C180.567 42.3908 180.212 42.5686 179.679 42.7465C179.501 42.7465 179.324 42.7465 179.146 42.5686C178.968 42.3908 178.968 42.3908 178.791 42.3908C178.613 42.3908 178.613 42.2129 178.435 42.2129C178.258 42.2129 178.08 42.035 177.725 42.035C177.37 42.035 177.192 42.035 177.014 42.035C176.837 41.6793 176.837 41.3236 176.659 41.1458C176.659 40.9679 176.659 40.6122 176.659 40.2565C176.659 39.7229 176.659 39.3672 176.659 39.1894C176.659 39.0115 176.837 38.6558 177.014 38.3001C178.08 36.8772 178.968 35.4544 180.034 33.8537C180.923 32.4309 181.811 30.8302 182.877 29.2295L183.587 27.9845C183.765 27.6288 184.12 27.451 184.298 27.451C184.653 27.451 184.831 27.2731 185.186 26.9174C185.186 26.7395 185.186 26.5617 185.364 26.3838C185.364 26.206 185.364 26.0281 185.364 25.8502C185.364 25.8502 185.542 25.6724 185.719 25.6724C185.897 25.4946 186.074 25.4945 186.074 25.3167C186.252 25.1388 186.43 24.961 186.43 24.7831C186.607 24.6053 186.607 24.6053 186.607 24.4274L187.14 23.1824L187.851 22.6488C187.851 22.471 188.029 22.2932 188.206 22.1153C188.384 21.9374 188.562 21.5817 188.739 21.226C188.917 20.8703 189.095 20.6925 189.272 20.3368C189.45 20.1589 189.627 19.8032 189.627 19.8032C189.627 19.8032 189.627 19.6253 189.627 19.4475C189.627 19.2696 189.627 19.0917 189.805 19.0917L191.759 17.1353C191.759 16.9575 191.759 16.9575 191.759 16.7797C191.759 16.7797 191.759 16.6018 191.937 16.6018C191.937 16.6018 191.937 16.4239 192.115 16.0682C192.292 15.7125 192.292 15.5346 192.292 15.5346L193.358 14.4675C193.713 14.1118 193.891 13.7561 194.069 13.4004C194.246 13.0446 194.424 12.8668 194.779 12.6889C194.957 12.5111 195.312 12.3333 195.49 12.1554C195.668 11.9775 196.201 11.9775 196.733 11.9775C197.089 11.9775 197.444 12.3332 197.622 12.8668C197.799 13.4004 197.977 14.1118 198.155 14.8232C198.332 15.5347 198.332 16.246 198.332 16.9575C198.332 17.6689 198.332 18.2025 198.332 18.3803V19.981C197.977 20.3367 197.799 20.6924 197.799 20.8703C197.799 21.226 197.799 21.5817 197.799 21.9374C197.799 22.2931 197.799 22.6489 197.977 22.8267C198.155 23.0046 198.155 23.3603 198.155 23.716L197.799 26.206V26.7395L198.155 27.8066L197.622 34.0316C197.622 34.3873 197.622 34.743 197.799 34.9208C197.799 35.2766 198.155 35.4544 198.51 35.4544C198.865 35.4544 199.221 35.6323 199.576 35.6323C199.931 35.6323 200.464 35.6323 200.819 35.6323C201.175 35.6323 201.708 35.6323 202.063 35.6323C202.418 35.6323 202.951 35.6323 203.307 35.4544C203.662 35.0987 204.017 34.9208 204.372 34.9208C204.728 34.9208 205.083 34.9208 205.616 34.9208C205.794 34.9208 206.149 34.9209 206.682 35.0987C207.037 35.2766 207.57 35.4544 208.103 35.6323C208.636 35.8101 208.991 36.1658 209.347 36.5215C209.702 36.8772 209.88 37.0551 209.88 37.4108C209.88 38.6558 209.524 39.723 208.991 40.6122C208.458 41.5015 207.57 42.035 206.149 42.035C205.616 42.035 205.083 41.8572 204.728 41.6794C204.372 41.5015 203.662 41.3236 202.951 41.3236C202.774 41.3236 202.418 41.3237 202.241 41.5015C201.885 41.5015 201.708 41.5015 201.352 41.5015C200.997 41.5015 200.464 41.5015 200.109 41.5015C199.754 41.5015 199.221 41.6793 199.043 41.8572C198.688 42.035 198.332 42.2129 198.155 42.5686C197.977 42.9244 197.799 43.28 197.799 43.8136C197.799 43.8136 197.799 43.9915 197.799 44.1693C197.799 44.3472 197.799 44.525 197.799 44.7029V47.5486C197.799 48.0821 197.799 48.4379 197.799 48.6157C197.622 48.9714 197.622 49.3271 197.622 49.6829C197.622 50.0386 197.622 50.2164 197.799 50.3943C197.977 50.5721 198.155 50.75 198.155 51.1057C198.332 51.9949 198.332 52.7064 198.332 53.5956C198.332 54.4849 198.332 55.1964 198.155 55.9078C198.155 56.0856 197.977 56.2635 197.799 56.6192C197.622 56.9749 197.266 57.1528 197.089 57.5085C196.911 57.8642 196.556 58.042 196.201 58.2199C195.845 58.3977 195.668 58.5756 195.668 58.5756C195.49 58.5756 195.312 58.3977 194.957 58.2199C194.779 58.042 194.424 57.8641 194.246 57.8641C193.536 57.6863 193.003 57.5085 192.648 57.3306C192.292 57.1527 192.115 56.9749 191.937 56.6192C191.759 56.2635 191.759 55.9078 191.582 55.5521C191.404 55.1963 191.404 54.6628 191.226 53.9514L190.693 53.0621ZM183.41 35.6323C183.41 36.1658 183.765 36.5215 184.476 36.6994C185.186 36.8773 185.897 36.8773 186.607 36.8773C186.963 36.8773 187.318 36.8773 188.029 36.6994C188.739 36.6994 189.45 36.5216 190.16 36.3437C190.871 36.1659 191.582 35.988 192.115 35.8101C192.647 35.6323 193.003 35.2766 193.003 34.9208C193.003 34.5651 193.003 34.2094 193.003 33.8537C193.003 33.3201 193.003 32.9644 192.825 32.4309C192.825 32.0752 192.825 31.5416 192.648 31.1859C192.648 30.8302 192.648 30.6523 192.648 30.6523L192.292 30.1188C192.292 29.9409 192.292 29.763 192.292 29.5852C192.292 29.4073 192.292 29.0516 192.292 28.6959C192.292 28.3402 192.292 27.8067 192.115 27.451C192.115 26.9174 191.937 26.5617 191.759 26.206C191.582 25.8502 191.404 25.4945 191.049 25.3167C190.693 25.1388 190.338 24.9609 189.983 24.9609C189.627 24.9609 189.094 25.1388 188.739 25.4945C188.384 25.8503 188.029 26.2059 187.673 26.7395C187.318 27.2731 186.963 27.6288 186.785 28.1624C186.43 28.6959 186.252 29.0516 186.074 29.4073L183.765 34.0316C183.587 34.3873 183.41 34.743 183.41 34.9208C183.41 34.9208 183.41 35.2765 183.41 35.6323Z" fill="#DCBC89"/>
<path d="M228.888 55.3742C228.888 54.8406 229.066 54.1292 229.421 53.4178C229.776 52.7064 230.309 52.3507 231.02 51.995C231.908 51.1057 232.797 50.2164 233.685 49.3271C234.573 48.4379 235.106 47.5486 235.639 46.6593C235.817 46.3036 235.994 45.9479 235.994 45.4143C235.994 45.2364 235.994 45.0586 235.994 44.8807C235.994 44.7029 235.994 44.5251 236.172 44.3472L236.882 42.5687C236.882 42.3908 236.882 42.2129 236.882 42.2129C236.882 42.2129 236.882 42.035 236.882 41.8572C236.882 41.6793 237.06 41.5015 237.238 41.3236C237.415 41.1458 237.593 40.7901 237.593 40.2565L237.415 38.8337L237.771 36.8773C237.771 36.6994 237.593 36.5216 237.415 35.988C237.238 35.6323 236.882 35.2765 236.705 34.743C236.349 34.3873 236.172 33.8537 235.817 33.498C235.461 33.1423 235.284 32.7866 235.106 32.6088C235.106 32.6088 235.106 32.6087 234.928 32.4309C234.928 32.4309 234.928 32.253 234.751 32.253V32.0752C234.573 31.8973 234.395 31.7195 234.04 31.3637C233.685 31.1859 233.329 30.8302 232.974 30.4745C232.619 30.1188 232.264 29.9409 231.908 29.5852C231.553 29.2295 231.375 29.0516 231.375 28.8738L231.198 27.8066C230.842 27.0952 230.487 26.5617 230.309 26.206C230.132 25.8502 229.954 25.3167 229.954 24.4274C229.954 23.716 229.954 23.1824 230.132 22.8267C230.132 22.471 230.309 21.9375 230.665 21.226C230.665 21.226 230.665 21.0482 230.487 20.8703C230.487 20.6924 230.487 20.5146 230.487 20.5146C230.487 19.4474 230.665 18.736 231.02 18.0246C231.375 17.491 231.908 16.7796 232.264 16.0682V15.1789L233.329 14.1118C233.685 13.5783 234.04 13.2225 234.218 12.8668C234.573 12.5111 234.751 12.3333 235.106 12.1554C235.461 11.9776 235.817 11.7997 236.172 11.7997C236.527 11.7997 237.06 11.6218 237.771 11.6218C238.837 11.6218 239.902 11.7997 240.968 12.1554C242.034 12.5111 243.1 12.689 244.166 12.689C244.699 12.689 245.232 12.5111 245.765 12.1554C246.298 11.7997 246.653 11.444 247.186 11.2661C247.719 11.0883 248.074 10.5547 248.252 10.3769C248.607 10.0211 248.963 9.84326 249.14 9.84326C249.318 9.84326 249.496 10.0211 249.496 10.3769C249.496 10.7326 249.496 10.9104 249.496 11.0883C249.318 11.6218 249.318 12.1554 249.14 12.689C249.14 13.0447 248.963 13.5783 248.785 13.934C248.607 14.2897 248.607 14.4675 248.43 14.4675C248.43 14.6454 248.43 14.6454 248.252 14.8232C248.074 15.0011 248.074 15.0011 248.074 15.1789L247.364 15.8904C247.186 16.0682 247.186 16.4239 247.009 16.7797C247.009 17.1354 246.831 17.4911 246.831 17.6689C246.831 17.8468 246.653 18.2025 246.298 18.3803C246.12 18.5582 245.765 18.736 245.41 18.736C244.521 18.736 243.633 18.7361 242.923 18.5582C242.212 18.3804 241.324 18.2025 240.613 18.0246C239.903 17.8468 239.192 17.6689 238.304 17.4911C237.415 17.3132 236.705 17.3132 235.994 17.3132H234.395C234.04 17.4911 233.685 17.6689 233.507 18.2025C233.329 18.5582 233.152 19.0918 233.152 19.4475C233.152 19.6253 233.507 19.981 234.04 20.5146C234.573 21.0481 235.284 21.7596 235.817 22.471L237.06 23.716C237.415 24.0717 237.771 24.6052 238.126 25.1388C238.481 25.6724 238.837 26.0281 239.014 26.3838C239.192 26.9174 239.547 27.4509 239.903 27.8066C240.258 28.1624 240.613 28.696 240.968 29.2295L241.501 30.6523C241.857 31.008 242.212 31.1859 242.212 31.3637C242.212 31.5416 242.39 31.5416 242.39 31.7195C242.39 32.0752 242.39 32.4309 242.567 32.7866C242.567 33.1423 242.745 33.3202 243.1 33.498V34.9208L242.745 38.3001L243.1 39.1894C243.1 39.5451 243.1 40.0787 242.923 40.7901C242.745 41.5015 242.745 42.0351 242.567 42.3908L242.212 43.9915C242.034 44.3472 241.857 44.8807 241.857 45.5922C241.857 46.3036 241.679 46.8371 241.501 47.1928C241.146 47.7264 240.613 48.6157 239.725 49.8607C238.837 50.9278 237.948 52.1728 237.06 53.4178C236.172 54.6628 235.106 55.5521 234.04 56.4413C232.974 57.3306 232.086 57.6863 231.375 57.6863C230.842 57.6863 230.309 57.5085 229.599 57.1527C229.243 56.6192 228.888 56.0856 228.888 55.3742Z" fill="#DCBC89"/>
<path d="M272.057 30.4746C272.057 29.5853 272.235 28.6961 272.413 27.6289C272.59 26.7396 272.768 25.8504 272.945 24.9611C272.945 24.9611 273.123 24.6054 273.123 24.4276C273.656 23.5383 274.011 22.649 274.189 21.5819C274.367 20.5147 274.9 19.6255 275.61 18.5584C275.965 18.0248 276.143 17.6691 276.498 17.3133C276.854 16.9576 277.031 16.6019 277.387 16.4241C278.097 15.8905 278.63 15.1791 279.163 14.6455C279.696 14.1119 280.051 13.4005 280.584 12.5112L282.183 11.0884L282.539 10.1991C282.539 10.1991 282.716 10.0213 282.894 9.8434C283.072 9.66555 283.427 9.48772 283.782 9.30986C284.137 9.13201 284.493 8.95416 284.848 8.59845C285.203 8.4206 285.559 8.24271 285.914 8.06485C286.447 7.887 286.625 7.70917 286.625 7.70917C286.625 7.70917 286.98 7.53131 287.335 7.53131C287.69 7.35345 287.868 7.35343 288.046 7.17558C288.579 6.64201 288.934 6.28633 289.112 5.93062C289.289 5.57491 289.645 5.21919 290.355 4.86348C290.888 4.68563 291.421 4.50778 291.954 4.15207C292.487 3.97422 293.02 3.61852 293.553 3.44066C294.086 2.9071 294.619 2.55136 294.796 2.19565C294.974 1.83994 295.685 1.66211 296.395 1.66211C296.751 1.66211 296.928 1.66211 297.461 1.66211C297.994 1.66211 298.172 1.83992 298.527 1.83992C298.882 2.01778 299.238 2.19566 299.415 2.37352C299.593 2.55137 299.771 2.90708 299.771 3.2628C299.771 3.97422 299.593 4.32989 299.238 4.50775C298.882 4.6856 298.349 4.8635 297.994 5.21921C297.639 5.57492 297.461 5.93059 297.284 6.2863C297.106 6.64201 296.928 6.99772 296.395 7.17558C296.395 7.17558 296.218 7.35344 295.862 7.35344C295.685 7.35344 295.329 7.53132 295.152 7.70917L294.086 8.24272C293.731 8.42057 293.375 8.77628 293.198 9.13199C293.02 9.4877 292.665 9.84342 292.309 10.0213C291.954 10.1991 291.599 10.5548 291.243 10.7327C290.888 11.0884 290.533 11.2662 290 11.622C289.645 11.9777 289.289 12.3334 289.112 12.6891C288.934 13.0448 288.756 13.4005 288.756 13.9341C288.401 14.112 288.046 14.2898 287.69 14.4676C287.335 14.6455 286.98 14.6455 286.625 14.8234C286.269 15.0012 285.914 15.1791 285.559 15.3569C285.203 15.5348 284.848 15.8905 284.67 16.2462C284.67 16.2462 284.67 16.4241 284.67 16.7798C284.67 17.1355 284.67 17.1355 284.493 17.3133L284.137 17.6691C284.137 17.6691 284.315 17.8469 284.67 18.0248C285.026 18.2026 285.559 18.2026 285.914 18.3805C286.447 18.5583 286.98 18.5583 287.513 18.7362C288.046 18.914 288.401 18.914 288.579 19.0919C289.645 19.6255 290.355 20.159 291.066 20.6926C291.776 21.2261 292.309 21.9376 293.02 22.8269C293.198 23.0047 293.375 23.1826 293.553 23.7161C293.731 24.2497 293.908 24.7833 294.263 25.3168C294.441 25.8504 294.619 26.3839 294.796 26.9175C294.974 27.4511 294.974 27.8068 294.974 27.8068C294.974 28.3404 294.796 28.8739 294.796 29.0518C294.796 29.2297 294.619 29.4075 294.619 29.5853C294.619 29.9411 294.619 30.1189 294.796 30.2968C294.796 30.4746 294.796 30.6525 294.796 30.8303C294.796 31.1861 294.796 31.3639 294.796 31.5418C294.796 31.7196 294.796 31.7196 294.796 31.8975C294.796 32.4311 294.796 32.7867 294.619 33.3203C294.441 33.8539 294.264 34.2096 294.086 34.7431C293.553 35.4546 293.198 36.166 292.842 36.8774C292.487 37.5888 292.132 38.1224 291.599 38.8338C291.599 38.8338 291.421 38.8338 291.421 39.0117C291.421 39.0117 291.243 39.0117 291.243 39.1895C291.243 39.1895 291.066 39.1895 290.888 39.1895C290.71 39.1895 290.533 39.1895 290.355 39.3674C290.355 39.3674 290 39.7231 289.645 40.0788C289.289 40.4345 289.112 40.6124 288.934 40.7902C288.756 40.7902 288.579 40.7902 288.401 40.7902C288.223 40.7902 287.868 40.7902 287.69 40.7902C287.513 40.7902 287.158 40.7902 286.98 40.9681C286.802 40.9681 286.625 40.9681 286.447 41.1459C285.914 41.1459 285.559 41.5016 285.381 41.8573C285.026 42.213 284.67 42.3909 284.137 42.3909C283.072 42.3909 282.183 42.213 281.65 41.8573C281.117 41.5016 280.229 41.146 279.341 40.7902C279.341 40.7902 279.163 40.7902 278.986 40.7902C278.808 40.7902 278.63 40.6124 278.453 40.6124C278.275 40.6124 278.097 40.4345 277.92 40.4345C277.742 40.4345 277.564 40.4345 277.564 40.4345C277.209 40.4345 277.031 40.2566 276.676 40.0788C276.321 39.9009 275.966 39.5452 275.788 39.1895C275.433 38.8338 275.255 38.4781 274.9 38.3002C274.544 38.1224 274.367 37.7667 274.189 37.5888C274.189 37.5888 274.011 37.411 274.011 37.0553C273.834 36.6996 273.834 36.3438 273.656 35.9881C273.478 35.6324 273.478 35.0988 273.301 34.7431C273.123 34.3874 273.123 34.0317 273.123 34.0317C273.123 34.0317 273.123 33.8539 272.945 33.4982C272.945 33.3203 272.768 33.1425 272.768 32.7868C272.768 32.6089 272.59 32.431 272.59 32.2532C272.59 32.0753 272.413 31.8975 272.413 31.8975C272.413 31.7196 272.413 31.5417 272.235 31.3639C272.057 30.8303 272.057 30.6525 272.057 30.4746ZM276.143 30.6525L276.321 31.5418C276.321 31.7196 276.498 31.8975 276.498 32.2532C276.676 32.6089 276.676 32.9646 276.854 33.3203C277.031 33.676 277.209 34.2096 277.387 34.7431C277.564 35.2767 277.742 35.8103 278.097 36.3439C278.275 36.8774 278.63 37.411 279.163 37.7667C279.696 38.1224 280.052 38.656 280.762 38.8338C280.762 38.8338 280.94 38.8338 281.117 38.8338H283.427C283.96 38.8338 284.493 38.6559 284.848 38.3002C284.848 38.3002 285.026 38.1224 285.203 37.9446C285.381 37.7667 285.559 37.5889 285.914 37.2331C286.092 37.0553 286.447 36.8774 286.625 36.5217C286.802 36.3438 286.98 36.166 286.98 36.166C288.046 35.2767 288.756 34.2096 288.934 33.1424C289.289 32.0753 289.467 30.8304 289.467 29.2297C289.467 28.3404 289.289 27.8068 289.112 27.2732C288.934 26.7397 288.579 26.2061 288.401 25.4947V24.4276C288.223 23.894 287.868 23.5383 287.513 23.1825C287.157 23.0047 286.802 22.8268 286.269 22.4711C286.092 22.4711 285.914 22.2933 285.559 22.1155C285.381 21.9376 285.026 21.7597 284.67 21.404C284.315 21.2261 284.137 21.0483 283.782 20.6926C283.427 20.3369 283.072 20.3369 282.894 20.3369C282.716 20.3369 282.361 20.3369 282.006 20.3369C281.65 20.3369 281.295 20.5147 280.94 20.5147C280.584 20.5147 280.229 20.6926 279.874 20.8704C279.519 21.0483 279.341 21.2261 279.341 21.404L277.031 25.8504V26.384C277.031 26.9175 277.031 27.4511 277.031 27.9847C277.031 28.5182 276.854 29.0518 276.854 29.0518C276.854 29.0518 276.676 29.4075 276.498 29.5853C276.143 30.2968 276.143 30.4746 276.143 30.6525Z" fill="#DCBC89"/>
<path d="M330.504 58.5756L330.327 58.2199L330.504 57.1528C330.327 56.797 330.327 56.4413 330.327 56.0856C330.327 55.9078 330.327 55.7299 330.504 55.3742L330.327 54.3071C330.682 53.7735 330.86 53.2399 331.215 52.5285C331.393 51.9949 331.57 51.4614 331.748 50.75L332.281 48.7936C332.458 48.26 332.636 47.7264 332.991 47.1929C333.347 46.6593 333.524 46.1257 333.524 45.5922C333.524 44.7029 333.702 44.1694 334.057 43.4579C334.413 42.7465 334.59 42.2129 334.768 41.3237C334.946 40.9679 334.946 40.4344 334.946 40.2565C334.946 40.0787 334.946 40.0787 334.946 39.9008C334.946 39.723 334.946 39.7229 334.946 39.3672L335.123 38.6558V38.478L335.301 38.3001C335.478 38.3001 335.656 37.9444 336.011 37.5887C336.367 37.233 336.544 37.0551 336.544 36.8773L336.9 35.8101C337.077 35.0987 337.433 34.3873 337.61 33.498C337.788 32.6088 338.143 31.8973 338.676 31.3638V30.4745C338.676 29.9409 338.676 29.2295 338.854 28.6959C338.854 28.1624 339.031 27.6288 339.209 27.0952C339.387 26.5617 339.387 26.0281 339.564 25.3167C339.742 24.7831 339.742 24.0717 339.92 23.3603C339.92 22.8267 339.742 22.2932 339.564 21.9375C339.387 21.5817 339.031 21.226 338.676 21.0482C338.321 20.8703 337.966 20.6924 337.433 20.6924C336.9 20.6924 336.544 20.5146 336.011 20.5146H332.814C331.925 20.5146 330.86 20.3368 329.971 20.1589C329.083 19.981 328.017 19.981 327.129 19.981H326.596L326.241 19.6253H320.556C320.201 19.6253 320.023 19.8032 319.845 20.3368C319.668 20.8703 319.49 21.4039 319.135 21.9375C318.779 22.471 318.424 23.1824 318.069 23.5381C317.713 24.0717 317.181 24.2495 316.292 24.2495C316.115 24.2495 316.115 24.0717 316.115 23.8939V23.0046C316.115 22.1153 316.292 21.4039 316.47 20.8703C316.648 20.3367 316.825 19.8032 316.825 19.2696C316.825 18.9139 316.825 18.3804 317.003 17.6689C317.003 16.9575 317.181 16.2461 317.181 15.5347C317.358 14.8232 317.536 14.2897 317.891 13.5782C318.246 13.0447 318.602 12.689 319.312 12.689C319.668 12.689 319.845 12.8668 319.845 12.8668C320.023 12.8668 320.023 13.0447 320.023 13.2226C320.023 13.4004 320.201 13.4004 320.201 13.5782C320.201 13.7561 320.378 13.7561 320.556 13.934C320.556 13.934 320.733 14.1118 321.266 14.1118C321.622 14.2897 322.155 14.2897 322.51 14.4675C323.043 14.6454 323.398 14.6454 323.931 14.8232C324.287 14.8232 324.642 15.0011 324.819 15.0011C324.997 15.0011 324.997 15.0011 325.175 15.0011C325.352 15.0011 325.352 15.0011 325.53 14.8232C325.708 14.8232 325.885 14.8232 326.241 14.8232C326.774 14.8232 327.129 14.8233 327.662 15.0011C328.195 15.179 328.55 15.1789 329.083 15.1789C329.971 15.1789 330.682 15.3568 331.57 15.3568C332.281 15.5346 333.169 15.5347 333.88 15.5347C334.413 15.5347 334.768 15.5346 335.301 15.3568C335.478 15.3568 335.656 15.3568 335.834 15.1789C336.011 15.0011 336.189 15.1789 336.544 15.1789C336.722 15.1789 336.9 15.1789 337.077 15.3568C337.255 15.3568 337.433 15.5347 337.788 15.8904H341.519C341.696 15.8904 341.874 16.0682 342.229 16.2461C342.584 16.6018 342.762 16.7797 342.762 16.7797C342.762 17.6689 342.584 18.3803 342.407 19.0918C342.229 19.8032 342.052 20.5146 342.052 21.226L342.407 23.5381C342.229 24.0717 342.229 24.6053 342.052 25.3167C341.874 26.0281 341.874 26.5617 341.696 27.2731C341.519 27.9845 341.341 28.5181 341.163 29.2295C340.986 29.7631 340.63 30.2966 340.275 30.8302V33.6759C339.92 34.0316 339.742 34.3873 339.564 34.743C339.387 35.0987 339.209 35.4544 338.854 35.8101C338.854 35.988 338.676 36.1659 338.499 36.3437C338.321 36.5216 338.321 36.6994 338.321 36.8773L338.676 38.1223C338.676 38.1223 338.499 38.478 338.143 38.8337C337.788 39.1894 337.788 39.3672 337.61 39.5451C337.433 39.9008 337.255 40.2565 337.255 40.4344C337.255 40.7901 337.255 41.1458 337.077 41.3237C337.077 41.6794 336.9 42.0351 336.9 42.2129C336.722 42.5686 336.544 42.7465 336.189 42.9243V43.4579C336.189 44.1694 336.189 45.0586 336.011 45.9479C335.834 46.8372 335.656 47.7264 335.656 48.26C335.656 48.4379 335.656 48.6157 335.478 48.6157C334.946 49.505 334.768 50.3943 334.768 51.2836C334.768 52.1728 334.768 53.0621 334.59 54.1292C334.59 54.485 334.413 55.0185 334.057 55.1963C333.702 55.3742 333.524 55.9078 333.524 56.2635L333.347 56.7971C333.169 57.1528 332.991 57.5085 332.814 57.6864C332.636 57.8642 332.103 58.042 331.393 58.042C330.682 59.1092 330.504 58.9313 330.504 58.5756Z" fill="#DCBC89"/>
<path d="M377.582 19.8032C378.292 20.6925 379.003 21.5818 379.713 22.1153C380.424 22.6489 381.135 23.3603 381.845 24.2496L382.556 25.3167L383.444 26.0281C383.622 26.3838 383.799 26.7396 383.977 27.451C384.155 28.1624 384.332 28.6959 384.51 29.4074C384.688 30.1188 384.865 30.8302 384.865 31.3638C384.865 31.8973 385.043 32.4309 385.043 32.7867C385.043 33.1424 385.043 33.498 385.043 34.0316C385.043 34.5652 385.043 35.0988 384.865 35.4545C384.865 35.988 384.688 36.5216 384.51 36.8773C384.332 37.4109 384.155 37.7666 383.799 37.9444C383.089 38.6559 382.378 39.3673 381.845 39.9009C381.312 40.4344 380.602 40.968 379.713 41.3237C379.003 41.6794 378.292 42.0351 377.404 42.213C376.516 42.3908 375.627 42.5687 374.562 42.5687C372.963 42.5687 371.364 42.213 369.943 41.6794C368.521 40.968 367.278 40.0787 366.212 38.8337C366.034 38.1223 365.679 37.4109 365.324 36.6994C364.968 35.988 364.791 35.2766 364.791 34.5652C364.791 33.4981 365.146 32.4309 365.679 31.5416C366.212 30.6524 366.745 29.5852 367.278 28.6959C367.456 28.3402 367.633 27.8067 367.811 27.451C367.989 27.0953 368.166 26.7396 368.521 26.3839C368.699 26.0281 369.054 25.8503 369.41 25.4946C369.765 25.1389 370.12 24.961 370.298 24.6053C370.476 24.2496 370.831 23.8939 371.009 23.5382C371.186 23.1825 371.364 22.8267 371.364 22.2932C371.364 21.9374 371.186 21.5818 371.009 21.2261C370.831 20.8704 370.476 20.5146 370.12 20.1589C369.765 19.8032 369.41 19.4475 368.877 19.0918C368.521 18.7361 367.988 18.3804 367.633 18.2025C367.456 18.0247 367.278 17.6689 366.923 17.1354C366.567 16.4239 366.39 15.8904 366.034 15.0011C365.679 14.2897 365.501 13.5783 365.146 12.8669C364.791 12.1554 364.791 11.7997 364.791 11.6218C364.791 10.199 364.968 8.77617 365.324 7.35333C365.679 5.93049 366.212 4.86336 366.923 3.79623C367.633 2.7291 368.521 2.01769 369.765 1.30627C370.831 0.772702 372.252 0.416992 374.029 0.416992C375.095 0.416992 376.16 0.594869 377.226 0.772724C378.292 0.950579 379.358 1.30625 380.424 1.83981C380.957 2.19552 381.312 2.55125 381.845 3.08482C382.378 3.61838 382.733 4.32982 383.089 5.04124C383.444 5.75266 383.799 6.46405 383.977 7.17547C384.155 7.88689 384.332 8.59832 384.51 9.13188C384.51 9.8433 384.332 10.5548 384.155 11.444C383.799 12.3333 383.444 13.2226 383.089 13.934C382.733 14.8233 382.201 15.5347 381.668 16.424C381.135 17.1354 380.779 17.8468 380.246 18.2025C380.246 18.3804 380.069 18.5582 379.713 18.736C379.536 18.9139 379.18 19.0918 378.825 19.2696C378.47 19.4475 378.292 19.6253 378.115 19.8032C377.582 19.4475 377.582 19.6253 377.582 19.8032ZM371.186 37.7666C371.719 38.3001 372.252 38.8337 372.963 39.1894C373.673 39.5451 374.384 39.723 375.272 39.723C375.805 39.723 376.338 39.5451 376.871 39.3673C377.404 39.0115 377.759 38.6558 378.115 38.3001C378.47 37.9444 378.825 37.4109 379.003 36.8773C379.18 36.3437 379.358 35.8102 379.358 35.2766C379.358 34.9209 379.358 34.5652 379.18 34.3873C379.003 34.0316 379.003 33.6759 379.003 33.3202C379.003 33.1423 379.003 32.9645 379.18 32.6088C379.18 32.4309 379.358 32.253 379.358 32.0752C379.358 31.8973 379.536 31.7195 379.536 31.7195C379.536 31.3638 379.358 30.6524 379.003 29.941C378.648 29.2295 378.115 28.5181 377.759 27.8067C377.226 27.0953 376.693 26.5617 376.16 26.0281C375.627 25.4946 375.094 25.3167 374.562 25.3167C373.673 25.3167 372.963 25.4946 372.43 26.0281C371.897 26.5617 371.541 27.0953 371.186 27.9845C370.831 28.696 370.653 29.5852 370.653 30.2966C370.476 31.1859 370.476 31.8974 370.298 32.6088C370.298 32.6088 370.298 32.7866 370.12 33.1423C370.12 33.498 370.12 33.6759 370.12 33.6759C370.12 33.6759 370.12 34.0316 370.298 34.2095C370.476 34.5652 370.476 34.743 370.476 34.743C370.476 34.9209 370.653 35.0988 370.653 35.2766C370.653 35.6323 370.831 35.8102 371.009 36.1659C371.186 36.5216 371.186 36.8773 371.364 37.0552C371.186 37.4109 371.186 37.7666 371.186 37.7666ZM370.12 8.77621C370.12 9.30977 370.298 10.199 370.476 11.0883C370.653 11.9776 371.009 12.8669 371.541 13.7561C371.897 14.6454 372.43 15.3568 372.963 16.0682C373.496 16.7796 374.206 16.9575 374.917 16.9575C375.095 16.9575 375.272 16.9575 375.45 16.9575C375.627 16.9575 375.983 16.7797 376.16 16.7797C376.16 16.7797 376.16 16.4239 376.16 16.0682C376.16 15.7125 376.16 15.3568 376.338 15.3568C376.338 15.3568 376.516 15.0011 376.693 14.8233C376.871 14.4676 377.049 14.2897 377.226 14.2897C377.226 14.2897 377.404 13.934 377.582 13.5783C377.759 13.2226 377.759 13.0447 377.937 12.689C377.937 12.689 378.115 12.5112 378.115 12.1554C378.115 11.7997 378.292 11.6219 378.47 11.444C378.648 11.2662 378.647 10.9104 378.825 10.7326C379.003 10.5547 379.003 10.3769 379.003 10.3769C379.003 10.0212 379.003 9.48759 378.825 9.13188C378.647 8.77617 378.47 8.24264 378.47 7.88693C378.292 6.99765 378.115 6.10838 377.937 5.2191C377.759 4.32983 377.404 3.61837 376.693 2.90695C376.338 2.7291 375.983 2.37339 375.45 2.01768C374.917 1.66197 374.739 1.48413 374.562 1.48413H373.851C372.963 1.48413 372.252 1.66198 371.719 2.19554C371.186 2.72911 370.831 3.26267 370.653 3.9741C370.476 4.68552 370.298 5.39691 370.298 6.28619C370.12 7.35332 370.12 8.06479 370.12 8.77621Z" fill="#DCBC89"/>
<path d="M405.295 50.0385L405.828 49.3271C405.828 49.1493 405.828 48.9714 406.006 48.4379C406.006 48.0821 406.006 47.7264 406.006 47.7264C406.183 47.1929 406.361 46.8372 406.716 46.8372C406.894 46.8372 407.249 46.6593 407.605 46.1258C407.782 45.7701 407.96 45.5922 407.96 45.2365C407.96 45.0586 408.137 44.7029 408.315 44.525C409.026 44.3472 409.559 43.9915 409.914 43.6357C410.269 43.28 410.802 42.7465 411.513 42.3908L415.776 40.4344C416.132 40.0787 416.487 39.7229 417.02 39.1894C417.553 38.8337 418.264 38.3001 418.796 37.7665C419.329 37.233 419.862 36.6994 420.395 36.3437C420.928 35.8102 421.106 35.2766 421.106 34.9209C421.106 34.9209 420.751 34.743 420.218 34.5652C419.685 34.3873 418.974 34.2094 418.441 34.0316C417.731 33.8537 417.02 33.6759 416.487 33.3202C415.776 33.1423 415.421 32.7866 415.243 32.6088C414.178 31.7195 413.289 31.008 412.579 30.2966C411.868 29.5852 411.335 28.8738 410.802 27.9845C410.447 27.0952 410.092 26.206 409.914 25.3167C409.736 24.4274 409.559 23.0046 409.559 21.5817C409.559 20.6924 409.736 19.981 410.092 19.0917C410.447 18.2025 410.802 17.4911 411.335 16.7797C411.868 16.0682 412.401 15.3568 413.112 14.6454C413.822 13.9339 414.355 13.4004 415.066 13.0447C415.599 12.689 416.132 12.3333 416.665 12.1554C417.198 11.9776 417.731 11.6218 418.086 11.2661C418.619 11.2661 419.152 11.0883 419.685 11.0883C420.218 11.0883 420.751 10.9104 421.461 10.9104C421.994 10.9104 422.349 10.9104 422.882 10.9104C423.415 10.9104 423.948 11.0883 424.481 11.0883C424.481 11.0883 424.659 11.2661 424.837 11.2661C425.014 11.444 425.014 11.444 425.192 11.6218L427.324 11.9775C428.212 12.3333 429.1 12.8668 429.988 13.5782C430.877 14.2896 431.587 15.1789 431.943 16.0682C431.943 16.0682 431.943 16.4239 431.943 16.6018C431.943 16.9575 431.943 17.1353 432.12 17.1353L433.008 18.0246C433.186 18.3803 433.541 18.9139 433.719 19.2696C433.897 19.8032 434.074 20.3367 434.252 20.8703C434.43 21.4039 434.43 21.9374 434.43 22.471C434.43 23.0046 434.43 23.3603 434.43 23.716C434.43 23.8939 434.43 24.0717 434.252 24.4274C434.252 24.7831 434.074 25.1388 434.074 25.6724C434.074 26.0281 433.897 26.5616 433.897 26.7395C433.897 27.0952 433.719 27.2731 433.719 27.2731L433.364 27.6288V28.6959C433.364 28.6959 433.186 28.8738 433.008 29.0517C432.653 29.2295 432.653 29.4073 432.476 29.4073V30.2966C432.476 30.4745 432.298 30.6524 431.943 31.0081C431.587 31.3638 431.41 31.5416 431.41 31.5416C431.41 31.5416 431.41 31.7194 431.41 32.0752C431.41 32.4309 431.41 32.4309 431.232 32.6088C430.877 33.1423 430.344 33.498 429.811 33.8537C429.278 34.2094 428.745 34.5652 428.39 35.0987C427.501 36.3437 426.435 37.5887 425.37 38.6558C424.304 39.7229 423.06 40.7901 421.994 41.8572C421.994 41.8572 421.817 42.0351 421.639 42.2129C421.461 42.3908 421.284 42.5687 421.284 42.5687C421.284 42.5687 421.106 42.5686 420.928 42.7465C420.751 42.7465 420.573 42.9243 420.395 42.9243C419.862 43.1022 419.329 43.4579 418.796 43.8136C418.264 44.1693 417.731 44.525 417.198 44.8808L416.487 45.5922L415.066 45.9479L414.355 46.8372C414 47.015 413.645 47.3707 413.112 47.7264C412.579 48.0822 412.223 48.4379 411.69 48.6157C411.157 48.9714 410.625 49.1493 410.092 49.3271C409.559 49.505 409.026 49.6829 408.67 49.6829L406.716 49.3271L405.295 50.0385ZM415.954 26.5617V27.2731C415.954 27.2731 416.132 27.4509 416.309 27.8066C416.487 27.9845 416.665 28.3402 416.842 28.5181C417.02 28.8738 417.198 29.0517 417.375 29.2295C417.553 29.4074 417.731 29.5852 417.731 29.7631C418.086 30.2966 418.441 30.6524 418.796 31.0081C419.152 31.1859 419.685 31.5416 420.04 31.7195L421.284 32.4309C421.461 32.4309 421.639 32.6088 421.639 32.7866C421.639 32.9645 421.817 33.1423 421.817 33.3202C421.817 33.498 421.994 33.6759 421.994 33.8537C421.994 34.0316 422.172 34.2094 422.349 34.2094C423.415 33.8537 424.126 33.1423 424.659 32.6088C425.192 31.8973 425.725 31.1859 426.435 30.2966C426.435 29.4073 426.791 28.5181 427.146 27.6288C427.501 26.7395 427.679 25.8502 427.679 24.9609C427.679 24.4274 427.679 24.0717 427.679 23.8939C427.679 23.716 427.679 23.5381 427.501 23.3603C427.501 23.1824 427.501 23.0046 427.501 22.8267L427.679 21.4038C427.146 20.3367 426.791 19.4474 426.613 18.736C426.435 18.0246 426.08 17.1354 425.547 16.6018C425.192 16.0682 424.659 15.5346 423.948 15.3568C423.238 15.0011 422.349 14.8232 421.106 14.8232H419.862C419.862 15.1789 419.685 15.3568 419.507 15.7125C419.329 15.8904 419.152 16.2461 418.796 16.4239C418.619 16.6018 418.264 16.9575 418.086 17.1353C417.908 17.3132 417.553 17.491 417.375 17.8467C416.842 18.3803 416.487 19.2696 416.132 20.1589C415.776 21.0482 415.599 21.9374 415.243 22.6489C415.243 23.1824 415.243 23.8938 415.421 24.4274C415.421 24.961 415.599 25.4945 415.599 26.0281C415.599 26.0281 415.599 26.206 415.599 26.3838C415.599 26.5617 415.599 26.5616 415.599 26.7395V26.5617H415.954Z" fill="#DCBC89"/>
</svg>
